<svg xmlns="http://www.w3.org/2000/svg" xmlns:xlink="http://www.w3.org/1999/xlink" width="1677.91" height="286.88" viewBox="0 0 1677.91 286.88">
  <defs>
    <linearGradient id="linear-gradient" x1="0.896" y1="0.123" x2="0.077" y2="0.872" gradientUnits="objectBoundingBox">
      <stop offset="0" stop-color="#28c2e4"/>
      <stop offset="1" stop-color="#10a2dc"/>
    </linearGradient>
  </defs>
  <g id="Group_4" data-name="Group 4" transform="translate(-121.05 -121.04)">
    <path id="Path_1" data-name="Path 1" d="M452.76,318.72V197.67H476.2V298.04h43.88v20.68Z" fill="#ffffff"/>
    <path id="Path_2" data-name="Path 2" d="M573.86,321.29c-11.69,0-20.91-2.92-27.42-8.68a27.565,27.565,0,0,1-9.11-21.15c0-8.49,3.41-15.22,10.12-19.84,6.61-4.55,15.74-6.86,27.15-6.86a102.61,102.61,0,0,1,23.76,3.25V260.3c0-6-1.2-10.48-3.57-13.32-2.33-2.78-6.24-4.19-11.64-4.19s-9.73,1.09-12.62,3.23a10.39,10.39,0,0,0-4.24,8.95v.88H540.83v-.88c0-10.45,3.76-18.12,11.16-22.8,7.27-4.6,17.54-6.94,30.52-6.94,18.68,0,30.94,6.67,36.47,19.84a41.566,41.566,0,0,1,2.83,15.97v57.68H601.24l-1.43-10.35c-5.91,8.58-14.62,12.93-25.93,12.93Zm5.15-40.44c-11.28,0-16.77,3.56-16.77,10.89a10.136,10.136,0,0,0,3.75,7.89c2.52,2.23,6.68,3.36,12.38,3.36a18.793,18.793,0,0,0,14.08-5.71,21.137,21.137,0,0,0,5.87-13.71,76.622,76.622,0,0,0-19.31-2.73Z" fill="#ffffff"/>
    <path id="Path_3" data-name="Path 3" d="M703.97,318.72V265.64c0-6.35-1.53-11.19-4.54-14.38-3-3.17-7.3-4.78-12.78-4.78s-10.15,2.42-14.11,7.39-6.1,12.58-6.33,22.63v42.21H642.77V227.62h20.56l2.1,13.59c6.08-10.6,15.44-15.98,27.84-15.98,11.26,0,19.87,3.76,25.6,11.18,5.67,7.35,8.54,17.18,8.54,29.21V318.7H703.97Z" fill="#ffffff"/>
    <path id="Path_4" data-name="Path 4" d="M789.87,321.29c-11.61,0-21.48-4.49-29.33-13.35-8.07-9.18-12.17-21.01-12.17-35.14s3.91-25.76,11.61-34.58a36.73,36.73,0,0,1,28.6-12.98c10.4,0,18.56,3.86,24.31,11.48V190.86h23.62V318.71H817.08l-2.25-12.07c-5.66,9.72-14.05,14.65-24.96,14.65Zm2.76-74.81c-5.91,0-10.71,2.33-14.68,7.13-3.95,4.78-5.96,11.3-5.96,19.39s2.04,14.67,6.05,19.57a18.812,18.812,0,0,0,15.13,7.31c5.01,0,9.56-2.02,13.53-5.99a21.165,21.165,0,0,0,6.18-15.56V266.75c-.24-6.09-2.31-11.14-6.18-15-3.49-3.49-8.23-5.26-14.08-5.26Z" fill="#ffffff"/>
    <rect id="Rectangle_5" data-name="Rectangle 5" width="23.44" height="127.85" transform="translate(857.47 190.87)" fill="#ffffff"/>
    <path id="Path_5" data-name="Path 5" d="M946.49,321.29c-12.93,0-23.53-4.04-31.5-12.02-8.59-8.58-12.94-20.67-12.94-35.91s4.36-27.7,12.94-36.28c7.85-7.85,18.45-11.84,31.5-11.84a50.8,50.8,0,0,1,17.21,2.9,36.48,36.48,0,0,1,13.93,8.95c8.58,8.7,12.93,20.91,12.93,36.27s-4.35,27.2-12.94,35.9c-7.73,7.98-18.21,12.03-31.14,12.03Zm.64-75.55a19.739,19.739,0,0,0-15.43,6.78c-4,4.53-6.03,11.48-6.03,20.65s1.82,16.16,5.41,20.69,8.39,6.74,14.67,6.74a19.491,19.491,0,0,0,15.33-6.78c4-4.53,6.03-11.48,6.03-20.66s-1.79-16.15-5.33-20.69-8.33-6.74-14.66-6.74Z" fill="#ffffff"/>
    <path id="Path_6" data-name="Path 6" d="M1011.7,318.72V227.45h23.44v14.73c5.49-10.75,13.34-16.2,23.39-16.2a32.524,32.524,0,0,1,8.13,1.32l.66.18-.4,23.44-1.04-.23a47.517,47.517,0,0,0-9.92-1.09c-14.01,0-20.82,9.51-20.82,29.09v40.03H1011.7Z" fill="#ffffff"/>
    <path id="Path_7" data-name="Path 7" d="M1122.25,321.29c-11.6,0-21.47-4.49-29.33-13.35-8.07-9.18-12.17-21.01-12.17-35.14s3.91-25.76,11.61-34.58a36.73,36.73,0,0,1,28.6-12.98c10.4,0,18.56,3.86,24.31,11.48V190.86h23.63V318.71h-19.43l-2.25-12.07c-5.66,9.72-14.05,14.65-24.96,14.65Zm2.76-74.81c-5.91,0-10.71,2.33-14.68,7.13-3.95,4.78-5.96,11.3-5.96,19.39s2.04,14.67,6.05,19.57a18.812,18.812,0,0,0,15.13,7.31c5.01,0,9.56-2.02,13.53-5.99a21.165,21.165,0,0,0,6.18-15.56V266.75a21.6,21.6,0,0,0-6.18-15c-3.49-3.49-8.23-5.26-14.08-5.26Z" fill="#ffffff"/>
    <path id="Path_8" data-name="Path 8" d="M1237.42,321.29c-13.37,0-24.38-3.34-32.71-9.93-9.36-7.24-14.36-17.6-14.85-30.8l-.04-.91h23.29v.88c0,9.44,4.77,15.23,14.6,17.71a45.566,45.566,0,0,0,11.92,1.26,26.137,26.137,0,0,0,13.52-3.65c4.04-2.36,6-5.42,6-9.36s-1.05-7-3.23-9.12c-2.23-2.17-5.96-4.24-11.09-6.15l-23.73-9.38c-9.25-3.58-16.46-7.85-21.43-12.69-5.06-4.93-7.62-11.82-7.62-20.48,0-10.17,4.02-18.32,11.93-24.23,7.96-6.09,18.87-9.18,32.42-9.18s24.2,3.19,31.63,9.49c7.44,6.32,11.78,15.26,12.9,26.59l.1.96h-23.2l-.13-.71c-1.89-10.03-8.82-14.91-21.2-14.91-6.03,0-10.77,1.21-14.1,3.6-3.28,2.36-4.87,5.11-4.87,8.39a9.766,9.766,0,0,0,3.1,7.71c2.17,1.94,5.63,3.76,10.29,5.44l25.94,10.12c8.91,3.47,15.88,7.9,20.73,13.18,4.91,5.36,7.4,12.14,7.4,20.17,0,11.02-4.2,19.88-12.47,26.33-8.2,6.41-20.01,9.65-35.1,9.65Z" fill="#ffffff"/>
    <path id="Path_9" data-name="Path 9" d="M1341.02,321.49a41.552,41.552,0,0,1-12.49-1.7,28.56,28.56,0,0,1-9.57-5.12c-5.83-5.2-8.78-12.41-8.78-21.45V244.1h-14.71V227.83h14.71V204.3h23.44v23.53h15.98V244.1h-15.98v48.39c0,6.83,3.14,10.15,9.6,10.15,3.44,0,7.98-.97,13.5-2.89l.95-.33,3.47,16.96-.68.27c-8.16,3.21-14.7,4.84-19.44,4.84Z" fill="#ffffff"/>
    <path id="Path_10" data-name="Path 10" d="M1413.2,321.72c-11.69,0-20.92-2.92-27.42-8.68a27.573,27.573,0,0,1-9.12-21.15c0-8.49,3.41-15.22,10.12-19.84,6.61-4.55,15.74-6.86,27.15-6.86a102.61,102.61,0,0,1,23.76,3.25v-7.71c0-6-1.2-10.49-3.57-13.31-2.33-2.78-6.24-4.19-11.64-4.19s-9.73,1.09-12.62,3.23a10.365,10.365,0,0,0-4.24,8.95v.88h-25.46v-.88c0-10.45,3.76-18.12,11.16-22.8,7.27-4.6,17.55-6.94,30.52-6.94,18.68,0,30.95,6.67,36.47,19.84a41.566,41.566,0,0,1,2.83,15.97v57.68h-20.58l-1.43-10.35c-5.91,8.58-14.62,12.93-25.93,12.93Zm5.15-40.44c-11.28,0-16.77,3.56-16.77,10.89a10.1,10.1,0,0,0,3.75,7.89c2.52,2.23,6.68,3.36,12.38,3.36a18.793,18.793,0,0,0,14.08-5.71,21.2,21.2,0,0,0,5.88-13.71,76.622,76.622,0,0,0-19.31-2.73Z" fill="#ffffff"/>
    <path id="Path_11" data-name="Path 11" d="M1560.41,319.14V227.87h23.44v91.27Zm11.73-105.51c-4.51,0-8.06-1.23-10.54-3.65s-3.76-5.76-3.76-9.91,1.27-7.48,3.76-9.91,6.03-3.65,10.54-3.65,7.89,1.23,10.43,3.65c2.56,2.42,3.86,5.76,3.86,9.92s-1.3,7.49-3.86,9.92c-2.54,2.42-6.05,3.64-10.43,3.64Z" fill="#ffffff"/>
    <path id="Path_12" data-name="Path 12" d="M1649.26,321.72c-12.93,0-23.53-4.04-31.5-12.02-8.59-8.58-12.94-20.66-12.94-35.91s4.35-27.7,12.94-36.28c7.85-7.85,18.45-11.84,31.5-11.84a50.8,50.8,0,0,1,17.21,2.9,36.482,36.482,0,0,1,13.93,8.95c8.58,8.71,12.93,20.91,12.93,36.27s-4.35,27.2-12.94,35.9c-7.73,7.98-18.21,12.03-31.14,12.03Zm.64-75.55a19.74,19.74,0,0,0-15.43,6.78c-4,4.53-6.03,11.48-6.03,20.65s1.82,16.16,5.41,20.69,8.39,6.74,14.67,6.74a19.491,19.491,0,0,0,15.33-6.78c4-4.53,6.03-11.48,6.03-20.66s-1.79-16.14-5.33-20.69c-3.54-4.53-8.33-6.74-14.66-6.74Z" fill="#ffffff"/>
    <path id="Path_13" data-name="Path 13" d="M1775.51,319.14V266.06c0-6.35-1.53-11.19-4.54-14.38-3-3.17-7.3-4.78-12.78-4.78s-10.15,2.42-14.11,7.39-6.1,12.58-6.33,22.63v42.21h-23.44V228.04h20.56l2.1,13.59c6.08-10.6,15.44-15.98,27.84-15.98,11.26,0,19.87,3.76,25.6,11.18,5.67,7.35,8.55,17.18,8.55,29.22v53.08h-23.44Z" fill="#ffffff"/>
    <path id="Path_14" data-name="Path 14" d="M1524.2,321.72a41.552,41.552,0,0,1-12.49-1.7,28.56,28.56,0,0,1-9.57-5.12c-5.83-5.2-8.78-12.41-8.78-21.45V244.33h-14.71V228.06h14.71V204.53h23.44v23.53h15.98v16.27H1516.8v48.39c0,6.83,3.14,10.15,9.6,10.15,3.44,0,7.99-.97,13.5-2.89l.95-.33,3.47,16.96-.68.27c-8.16,3.21-14.7,4.84-19.44,4.84Z" fill="#ffffff"/>
    <path id="Path_15" data-name="Path 15" d="M357.34,182.99a6.348,6.348,0,0,1,3.16-.85c5.53,0,11.45,7.22,11.45,27.49V311.46a38.188,38.188,0,0,1-17.03,31.83l-87.19,58.14c-5.72,3.82-12.59,5.92-21,6.44-.56.04-1.17.05-1.82.05-3.56,0-9.52,0-9.52-4.51V388.44a3.747,3.747,0,0,1,0-.82V343.51a11.054,11.054,0,0,1,11.05-11.05h0a11.045,11.045,0,0,1,11.05,11.04v38.35L342.74,325a16.253,16.253,0,0,0,7.25-13.55V212.99l-83.77,48.86a17.574,17.574,0,0,0-8.72,15.18v8.08a10.989,10.989,0,0,1-10.99,10.99h0a11,11,0,0,1-10.99-11v-8.18a17.657,17.657,0,0,0-8.62-15.13l-88.97-52.42c-15.01-8.84-15.01-9.51-15.01-11.74,0-8.24,8.93-16.32,17.28-21.14l87.19-50.34a38.363,38.363,0,0,1,38.26,0l31.03,19.02a10.993,10.993,0,0,1-.2,18.86h0a10.994,10.994,0,0,1-11.29-.12l-30.62-18.78a16.333,16.333,0,0,0-16.2.04l-83.74,48.35,83.03,49.11a17.595,17.595,0,0,0,17.81.06l101.88-59.71ZM213.8,387.29a3.947,3.947,0,0,1-6.16,3.26l-69.56-47.26a38.188,38.188,0,0,1-17.03-31.83V231.7a3.945,3.945,0,0,1,5.96-3.39l13.75,8.18a4.663,4.663,0,0,1,2.28,4v70.96A16.219,16.219,0,0,0,150.28,325l61.51,41.87a4.655,4.655,0,0,1,2.04,3.86l-.02,16.55Z" fill="#ffffff"/>
  </g>
</svg>
